<?xml version="1.0" encoding="iso-8859-1"?>
<!-- Uploaded to: SVG Repo, www.svgrepo.com, Generator: SVG Repo Mixer Tools -->
<svg height="800px" width="800px" version="1.1" id="Layer_1" xmlns="http://www.w3.org/2000/svg" xmlns:xlink="http://www.w3.org/1999/xlink" 
	 viewBox="0 0 512.001 512.001" xml:space="preserve">
<path style="fill:#7CD8A4;" d="M255.937,373.012c0,0,38.204,22.732,71.091,10.967c32.888-11.764,48.005-53.571,48.005-53.571
	s-38.204-22.732-71.091-10.967C271.054,331.205,255.937,373.012,255.937,373.012z"/>
<path style="opacity:0.2;fill:#328777;enable-background:new    ;" d="M327.029,364.618c-24.041,8.6-50.904-1.228-63.626-7.141
	c-5.032,8.811-7.465,15.534-7.465,15.534s38.204,22.732,71.091,10.967c32.888-11.764,48.005-53.571,48.005-53.571
	s-2.784-1.65-7.465-3.826C360.051,339.745,346.729,357.571,327.029,364.618z"/>
<path style="fill:#7CD8A4;" d="M136.525,242.402c0,0,38.204,22.732,71.091,10.967c32.888-11.764,48.005-53.571,48.005-53.571
	s-38.204-22.732-71.091-10.967C151.642,200.597,136.525,242.402,136.525,242.402z"/>
<g>
	<path style="opacity:0.24;fill:#328777;enable-background:new    ;" d="M207.616,234.609c-24.086,8.616-51.003-1.265-63.696-7.174
		c-4.984,8.75-7.395,15.411-7.395,15.411s38.204,22.732,71.091,10.967s48.005-53.571,48.005-53.571s-2.756-1.634-7.395-3.793
		C240.722,209.624,227.379,227.539,207.616,234.609z"/>
	<path style="fill:#328777;" d="M353.793,229.756c-38.199,0-71.72,20.412-90.231,50.899V105.481
		c0-49.753,40.477-90.231,90.231-90.231s90.231,40.477,90.231,90.231c0,4.212,3.413,7.625,7.625,7.625
		c4.212,0,7.625-3.413,7.625-7.625C459.273,47.319,411.955,0,353.793,0S248.312,47.319,248.312,105.481v23.216
		c-18.443-30.782-52.126-51.433-90.547-51.433c-58.162,0-105.481,47.319-105.481,105.481c0,4.212,3.413,7.625,7.625,7.625
		s7.625-3.413,7.625-7.625c0-49.753,40.477-90.231,90.231-90.231s90.232,40.477,90.232,90.231v11.685l-54.493,19.493
		c-3.964,1.418-6.03,5.783-4.61,9.747c1.115,3.116,4.048,5.059,7.179,5.059c0.853,0,1.719-0.144,2.568-0.447l49.356-17.656v263.253
		c0,0.752,0.113,1.476,0.316,2.162v28.336c0,4.212,3.413,7.625,7.625,7.625s7.625-3.413,7.625-7.625V396.615v-18.233l54.492-19.493
		c3.964-1.418,6.03-5.783,4.61-9.747c-1.419-3.965-5.783-6.03-9.747-4.61l-49.355,17.655v-26.949
		c0-49.753,40.477-90.231,90.231-90.231s90.231,40.477,90.231,90.231c0,4.212,3.413,7.625,7.625,7.625
		c4.212,0,7.625-3.413,7.625-7.625C459.273,277.075,411.955,229.756,353.793,229.756z"/>
</g>
<g>
	<path style="fill:#C70024;" d="M76.372,279.382L76.372,279.382c0,9.055-16.463,28.521-16.463,28.521l0,0
		c0,0-16.463-19.466-16.463-28.521l0,0V255.46h32.925v23.922H76.372z"/>
	<path style="fill:#C70024;" d="M468.112,431.875L468.112,431.875c0,9.055-16.463,28.521-16.463,28.521l0,0
		c0,0-16.463-19.466-16.463-28.521l0,0v-23.009h32.925v23.009H468.112z"/>
	<path style="fill:#C70024;" d="M468.112,202.119L468.112,202.119c0,9.055-16.463,28.521-16.463,28.521l0,0
		c0,0-16.463-19.466-16.463-28.521l0,0v-27.164h32.925v27.164H468.112z"/>
</g>
<g>
	<path style="fill:#FF3F62;" d="M107.87,302.314v-70.156c0-26.378-21.583-47.961-47.961-47.961l0,0
		c-26.378,0-47.961,21.583-47.961,47.961v70.156l47.961-36.837L107.87,302.314z"/>
	<path style="fill:#FF3F62;" d="M403.688,454.807v-70.156c0-26.378,21.583-47.961,47.961-47.961l0,0
		c26.378,0,47.961,21.583,47.961,47.961v70.156l-47.961-36.837L403.688,454.807z"/>
	<path style="fill:#FF3F62;" d="M403.688,225.05v-70.156c0-26.378,21.583-47.961,47.961-47.961l0,0
		c26.378,0,47.961,21.583,47.961,47.961v70.156l-47.961-36.837L403.688,225.05z"/>
</g>
<g style="opacity:0.32;">
	<path style="fill:#C70024;" d="M452.092,336.69L452.092,336.69c-13.053,0-24.927,5.291-33.597,13.826
		c5.422-2.139,11.312-3.327,17.47-3.327l0,0c26.378,0,47.961,21.583,47.961,47.961v47.272l16.128,12.387v-70.156
		C500.053,358.273,478.47,336.69,452.092,336.69z"/>
</g>
<g style="opacity:0.32;">
	<path style="fill:#C70024;" d="M452.092,106.933L452.092,106.933c-13.053,0-24.927,5.291-33.597,13.826
		c5.422-2.139,11.312-3.327,17.47-3.327l0,0c26.378,0,47.961,21.583,47.961,47.961v47.272l16.128,12.387v-70.156
		C500.053,128.516,478.47,106.933,452.092,106.933z"/>
</g>
<g style="opacity:0.32;">
	<path style="fill:#C70024;" d="M59.909,184.197L59.909,184.197c-13.053,0-24.927,5.29-33.597,13.826
		c5.422-2.139,11.312-3.327,17.47-3.327l0,0c26.378,0,47.961,21.583,47.961,47.961v47.272l16.128,12.387v-70.156
		C107.87,205.779,86.288,184.197,59.909,184.197z"/>
</g>
</svg>